# xmcd
#
# Track frame offsets:
#	150
#	8267
#	20242
#	30747
#	44285
#	46920
#	60537
#	80082
#	88780
#	113767
#	126237
#	138012
#	148437
#	164755
#
# Disc length: 2232 seconds
#
# Revision: 1
# Processed by: cddbd v1.5.1PL0 Copyright (c) Steve Scherf et al.
# Submitted via: CDex 1.50Beta5
#
DISCID=bf08b60e
DTITLE=桃太郎 - 二代目参上
DYEAR=1993
DGENRE=Rock
TTITLE0=仁義パート1
TTITLE1=仁義ロックンロール
TTITLE2=いいわけ学園
TTITLE3=籠の島
TTITLE4=Scene“ドラムを叩け”
TTITLE5=たった5秒のデート
TTITLE6=スターダストブギ
TTITLE7=ギャングエイジブルース
TTITLE8=天使達とパーティを
TTITLE9=トロールの香り
TTITLE10=天国へ行こう
TTITLE11=本牧ララバイ
TTITLE12=BLUE HAYAMA
TTITLE13=仁義パート2
EXTD=
EXTT0=
EXTT1=
EXTT2=
EXTT3=
EXTT4=
EXTT5=
EXTT6=
EXTT7=
EXTT8=
EXTT9=
EXTT10=
EXTT11=
EXTT12=
EXTT13=
PLAYORDER=
